M48
;GenerationSoftware,Autodesk,EAGLE,9.6.0*%
;CreationDate,2024-05-21T13:28:26Z*%
FMAT,2
ICI,OFF
METRIC,TZ,000.000
T5C0.800
T4C0.813
T3C1.000
T2C1.016
T1C1.321
%
G90
M71
T1
X11430Y33045
X11430Y38075
T2
X48260Y11430
X45720Y11430
X43180Y11430
X40640Y11430
X64770Y11430
X62230Y11430
X59690Y11430
X57150Y11430
X86360Y33020
X86360Y30480
X86360Y27940
X86360Y25400
X80010Y7620
X82550Y7620
X85090Y7620
X87630Y7620
X80010Y45085
X77470Y45085
X74930Y45085
X72390Y45085
T3
X40640Y44450
X38100Y44450
X35560Y44450
X33020Y44450
X30480Y44450
X27940Y44450
X25400Y44450
X22860Y44450
X22860Y31750
X25400Y31750
X27940Y31750
X30480Y31750
X33020Y31750
X35560Y31750
X38100Y31750
X40640Y31750
X64770Y31750
X67310Y44450
X64770Y44450
X62230Y44450
X59690Y44450
X57150Y44450
X54610Y44450
X52070Y44450
X49530Y44450
X49530Y31750
X52070Y31750
X54610Y31750
X57150Y31750
X59690Y31750
X62230Y31750
X67310Y31750
T4
X45085Y35560
X45085Y38100
T5
X22860Y50800
X25400Y50800
X27940Y50800
X30480Y50800
X33020Y50800
X35560Y50800
X38100Y50800
X40640Y50800
X44450Y50800
X46990Y50800
X49530Y50800
X52070Y50800
X54610Y50800
X57150Y50800
X59690Y50800
X62230Y50800
X67310Y50800
X69850Y50800
X72390Y50800
X74930Y50800
X77470Y50800
X80010Y50800
X82550Y50800
X85090Y50800
X92710Y50800
X92710Y48260
X92710Y45720
X92710Y43180
X92710Y40640
X92710Y38100
X92710Y35560
X92710Y33020
X92710Y30480
X92710Y27940
X92710Y25400
X92710Y22860
X92710Y20320
X92710Y17780
X92710Y15240
X92710Y12700
X92710Y10160
X92710Y7620
X95250Y7620
X95250Y10160
X95250Y12700
X41910Y2540
X39370Y2540
X95250Y17780
X34290Y2540
X31750Y2540
X95250Y20320
X95250Y22860
X95250Y25400
X95250Y27940
X95250Y30480
X95250Y33020
X95250Y35560
X95250Y38100
X95250Y40640
X95250Y43180
X95250Y45720
X95250Y48260
X95250Y50800
X90170Y2540
X95250Y15240
X87630Y2540
X85090Y2540
X82550Y2540
X80010Y2540
X77470Y2540
X74930Y2540
X72390Y2540
X67310Y2540
X64770Y2540
X62230Y2540
X59690Y2540
X57150Y2540
X54610Y2540
X52070Y2540
X49530Y2540
X44450Y2540
X36830Y2540
M30